<svg width="201" height="3" viewBox="0 0 201 3" fill="none" xmlns="http://www.w3.org/2000/svg">
<path d="M1.77002 0.750001C1.55519 0.750001 1.34917 0.83534 1.19727 0.987244C1.04536 1.13915 0.960022 1.34517 0.960022 1.56C0.960022 1.77482 1.04536 1.98085 1.19727 2.13275C1.34917 2.28466 1.55519 2.37 1.77002 2.37C1.98484 2.37 2.19087 2.28466 2.34277 2.13275C2.49468 1.98085 2.58002 1.77482 2.58002 1.56C2.58002 1.34517 2.49468 1.13915 2.34277 0.987244C2.19087 0.83534 1.98484 0.750001 1.77002 0.750001ZM19.77 0.750001C19.6098 0.750001 19.4532 0.797502 19.32 0.886506C19.1868 0.97551 19.083 1.10202 19.0217 1.25003C18.9604 1.39804 18.9443 1.56089 18.9756 1.71802C19.0068 1.87514 19.084 2.01947 19.1973 2.13275C19.3105 2.24603 19.4549 2.32318 19.612 2.35443C19.7691 2.38569 19.9319 2.36966 20.08 2.30835C20.228 2.24704 20.3545 2.14321 20.4435 2.01001C20.5325 1.87681 20.58 1.7202 20.58 1.56C20.5803 1.35193 20.5004 1.15175 20.3571 1.00095C20.2137 0.850142 20.0178 0.760276 19.81 0.750001H19.77ZM37.77 0.750001C37.6098 0.750001 37.4532 0.797502 37.32 0.886506C37.1868 0.97551 37.083 1.10202 37.0217 1.25003C36.9604 1.39804 36.9443 1.56089 36.9756 1.71802C37.0068 1.87514 37.084 2.01947 37.1973 2.13275C37.3105 2.24603 37.4549 2.32318 37.612 2.35443C37.7691 2.38569 37.9319 2.36966 38.08 2.30835C38.228 2.24704 38.3545 2.14321 38.4435 2.01001C38.5325 1.87681 38.58 1.7202 38.58 1.56C38.581 1.35834 38.5067 1.16356 38.3717 1.01376C38.2367 0.863964 38.0506 0.769915 37.85 0.750001H37.77ZM55.77 0.750001C55.5552 0.750001 55.3492 0.83534 55.1973 0.987244C55.0454 1.13915 54.96 1.34517 54.96 1.56C54.96 1.77482 55.0454 1.98085 55.1973 2.13275C55.3492 2.28466 55.5552 2.37 55.77 2.37C55.9848 2.37 56.1909 2.28466 56.3428 2.13275C56.4947 1.98085 56.58 1.77482 56.58 1.56C56.58 1.34517 56.4947 1.13915 56.3428 0.987244C56.1909 0.83534 55.9848 0.750001 55.77 0.750001ZM73.82 0.750001C73.6594 0.748018 73.5018 0.793833 73.3673 0.881623C73.2328 0.969413 73.1274 1.09522 73.0646 1.24304C73.0017 1.39087 72.9842 1.55402 73.0143 1.71179C73.0445 1.86957 73.1208 2.01484 73.2337 2.12912C73.3466 2.2434 73.4909 2.32157 73.6483 2.35364C73.8056 2.38571 73.969 2.37027 74.1176 2.30927C74.2662 2.24826 74.3933 2.14446 74.4828 2.01105C74.5722 1.87764 74.62 1.72062 74.62 1.56C74.6225 1.36591 74.5552 1.17738 74.4304 1.02872C74.3056 0.880053 74.1316 0.781137 73.94 0.750001H73.82ZM91.82 0.750001C91.6052 0.750001 91.3992 0.83534 91.2473 0.987244C91.0954 1.13915 91.01 1.34517 91.01 1.56C91.01 1.77482 91.0954 1.98085 91.2473 2.13275C91.3992 2.28466 91.6052 2.37 91.82 2.37C92.0348 2.37 92.2409 2.28466 92.3928 2.13275C92.5447 1.98085 92.63 1.77482 92.63 1.56C92.63 1.34517 92.5447 1.13915 92.3928 0.987244C92.2409 0.83534 92.0348 0.750001 91.82 0.750001ZM109.82 0.750001C109.66 0.750001 109.503 0.797502 109.37 0.886506C109.237 0.97551 109.133 1.10202 109.072 1.25003C109.01 1.39804 108.994 1.56089 109.026 1.71802C109.057 1.87514 109.134 2.01947 109.247 2.13275C109.361 2.24603 109.505 2.32318 109.662 2.35443C109.819 2.38569 109.982 2.36966 110.13 2.30835C110.278 2.24704 110.404 2.14321 110.493 2.01001C110.582 1.87681 110.63 1.7202 110.63 1.56C110.635 1.373 110.574 1.19016 110.46 1.04251C110.345 0.894862 110.182 0.79151 110 0.750001H109.82ZM127.82 0.750001C127.605 0.750001 127.399 0.83534 127.247 0.987244C127.095 1.13915 127.01 1.34517 127.01 1.56C127.01 1.77482 127.095 1.98085 127.247 2.13275C127.399 2.28466 127.605 2.37 127.82 2.37C128.035 2.37 128.241 2.28466 128.393 2.13275C128.545 1.98085 128.63 1.77482 128.63 1.56C128.63 1.34517 128.545 1.13915 128.393 0.987244C128.241 0.83534 128.035 0.750001 127.82 0.750001ZM145.87 0.750001C145.709 0.748018 145.552 0.793833 145.417 0.881623C145.283 0.969413 145.177 1.09522 145.115 1.24304C145.052 1.39087 145.034 1.55402 145.064 1.71179C145.095 1.86957 145.171 2.01484 145.284 2.12912C145.397 2.2434 145.541 2.32157 145.698 2.35364C145.856 2.38571 146.019 2.37027 146.168 2.30927C146.316 2.24826 146.443 2.14446 146.533 2.01105C146.622 1.87764 146.67 1.72062 146.67 1.56C146.679 1.38221 146.628 1.20653 146.527 1.06012C146.426 0.91371 146.279 0.804728 146.11 0.750001H145.87ZM163.87 0.750001C163.655 0.750001 163.449 0.83534 163.297 0.987244C163.145 1.13915 163.06 1.34517 163.06 1.56C163.06 1.77482 163.145 1.98085 163.297 2.13275C163.449 2.28466 163.655 2.37 163.87 2.37C164.085 2.37 164.291 2.28466 164.443 2.13275C164.595 1.98085 164.68 1.77482 164.68 1.56C164.68 1.34517 164.595 1.13915 164.443 0.987244C164.291 0.83534 164.085 0.750001 163.87 0.750001ZM181.87 0.750001C181.71 0.750001 181.553 0.797502 181.42 0.886506C181.287 0.97551 181.183 1.10202 181.122 1.25003C181.06 1.39804 181.044 1.56089 181.076 1.71802C181.107 1.87514 181.184 2.01947 181.297 2.13275C181.411 2.24603 181.555 2.32318 181.712 2.35443C181.869 2.38569 182.032 2.36966 182.18 2.30835C182.328 2.24704 182.455 2.14321 182.544 2.01001C182.633 1.87681 182.68 1.7202 182.68 1.56C182.694 1.39065 182.654 1.22132 182.566 1.07596C182.478 0.930598 182.346 0.816573 182.19 0.750001H181.87ZM199.87 0.750001C199.71 0.750001 199.553 0.797502 199.42 0.886506C199.287 0.97551 199.183 1.10202 199.122 1.25003C199.06 1.39804 199.044 1.56089 199.076 1.71802C199.107 1.87514 199.184 2.01947 199.297 2.13275C199.411 2.24603 199.555 2.32318 199.712 2.35443C199.869 2.38569 200.032 2.36966 200.18 2.30835C200.328 2.24704 200.455 2.14321 200.544 2.01001C200.633 1.87681 200.68 1.7202 200.68 1.56C200.697 1.39517 200.663 1.22913 200.582 1.08429C200.502 0.939452 200.379 0.822782 200.23 0.750001H199.87Z" fill="white"/>
</svg>
