<svg width="25" height="108" viewBox="0 0 25 108" fill="none" xmlns="http://www.w3.org/2000/svg">
<path opacity="0.7" d="M0.999993 1C0.999993 0.863531 1.04045 0.730123 1.11626 0.616653C1.19208 0.503183 1.29988 0.414742 1.42596 0.362518C1.55204 0.310293 1.69073 0.296633 1.82458 0.323257C1.95842 0.349881 2.08141 0.415602 2.17791 0.5121C2.27441 0.608598 2.34013 0.73154 2.36675 0.865387C2.39338 0.999233 2.37967 1.13797 2.32745 1.26405C2.27522 1.39013 2.18683 1.4979 2.07336 1.57371C1.95989 1.64953 1.82646 1.69 1.69 1.69C1.507 1.69 1.33148 1.6173 1.20208 1.4879C1.07268 1.3585 0.999993 1.183 0.999993 1ZM1.69 13.41C1.82646 13.41 1.95989 13.3695 2.07336 13.2937C2.18683 13.2179 2.27522 13.1101 2.32745 12.9841C2.37967 12.858 2.39338 12.7192 2.36675 12.5854C2.34013 12.4515 2.27441 12.3286 2.17791 12.2321C2.08141 12.1356 1.95842 12.0699 1.82458 12.0433C1.69073 12.0166 1.55204 12.0303 1.42596 12.0825C1.29988 12.1347 1.19208 12.2232 1.11626 12.3367C1.04045 12.4501 0.999993 12.5835 0.999993 12.72C0.991803 12.9014 1.05544 13.0787 1.17712 13.2135C1.29879 13.3483 1.46873 13.4297 1.65002 13.44L1.69 13.41ZM1.69 25.12C1.82646 25.12 1.95989 25.0795 2.07336 25.0037C2.18683 24.9279 2.27522 24.8201 2.32745 24.694C2.37967 24.568 2.39338 24.4292 2.36675 24.2954C2.34013 24.1615 2.27441 24.0386 2.17791 23.9421C2.08141 23.8456 1.95842 23.7799 1.82458 23.7533C1.69073 23.7266 1.55204 23.7403 1.42596 23.7925C1.29988 23.8448 1.19208 23.9332 1.11626 24.0467C1.04045 24.1601 0.999993 24.2935 0.999993 24.43C0.991803 24.6114 1.05544 24.7887 1.17712 24.9235C1.29879 25.0583 1.46873 25.1397 1.65002 25.15L1.69 25.12ZM1.69 36.84C1.82646 36.84 1.95989 36.7995 2.07336 36.7237C2.18683 36.6479 2.27522 36.5401 2.32745 36.414C2.37967 36.288 2.39338 36.1492 2.36675 36.0154C2.34013 35.8815 2.27441 35.7586 2.17791 35.6621C2.08141 35.5656 1.95842 35.4999 1.82458 35.4733C1.69073 35.4466 1.55204 35.4603 1.42596 35.5125C1.29988 35.5648 1.19208 35.6532 1.11626 35.7667C1.04045 35.8801 0.999993 36.0135 0.999993 36.15C0.991803 36.3314 1.05544 36.5087 1.17712 36.6435C1.29879 36.7783 1.46873 36.8597 1.65002 36.87L1.69 36.84ZM1.69 48.55C1.82646 48.55 1.95989 48.5095 2.07336 48.4337C2.18683 48.3579 2.27522 48.2501 2.32745 48.1241C2.37967 47.998 2.39338 47.8592 2.36675 47.7254C2.34013 47.5915 2.27441 47.4686 2.17791 47.3721C2.08141 47.2756 1.95842 47.2099 1.82458 47.1833C1.69073 47.1566 1.55204 47.1703 1.42596 47.2225C1.29988 47.2747 1.19208 47.3632 1.11626 47.4767C1.04045 47.5901 0.999993 47.7235 0.999993 47.86C0.991803 48.0414 1.05544 48.2187 1.17712 48.3535C1.29879 48.4883 1.46873 48.5697 1.65002 48.58L1.69 48.55ZM1.69 60.26C1.78013 60.2613 1.86964 60.2447 1.9533 60.2111C2.03696 60.1776 2.11309 60.1277 2.1773 60.0644C2.24151 60.0011 2.29247 59.9257 2.32726 59.8426C2.36206 59.7594 2.38001 59.6701 2.38 59.58C2.38 59.397 2.30731 59.2215 2.17791 59.0921C2.04851 58.9627 1.87299 58.89 1.69 58.89C1.507 58.89 1.33148 58.9627 1.20208 59.0921C1.07268 59.2215 0.999993 59.397 0.999993 59.58C0.995965 59.6693 1.00959 59.7586 1.04009 59.8426C1.07059 59.9267 1.11735 60.0039 1.17773 60.0698C1.2381 60.1358 1.31093 60.1891 1.39196 60.2269C1.47299 60.2647 1.56069 60.2861 1.65002 60.29L1.69 60.26ZM1.69 71.98C1.82646 71.98 1.95989 71.9395 2.07336 71.8637C2.18683 71.7879 2.27522 71.6801 2.32745 71.554C2.37967 71.428 2.39338 71.2892 2.36675 71.1554C2.34013 71.0215 2.27441 70.8986 2.17791 70.8021C2.08141 70.7056 1.95842 70.6399 1.82458 70.6133C1.69073 70.5866 1.55204 70.6003 1.42596 70.6525C1.29988 70.7048 1.19208 70.7932 1.11626 70.9066C1.04045 71.0201 0.999993 71.1535 0.999993 71.29C0.994484 71.4697 1.05932 71.6445 1.18072 71.7771C1.30212 71.9097 1.47053 71.9897 1.65002 72L1.69 71.98ZM1.69 83.69C1.82646 83.69 1.95989 83.6495 2.07336 83.5737C2.18683 83.4979 2.27522 83.3901 2.32745 83.264C2.37967 83.138 2.39338 82.9992 2.36675 82.8654C2.34013 82.7315 2.27441 82.6086 2.17791 82.5121C2.08141 82.4156 1.95842 82.3499 1.82458 82.3233C1.69073 82.2966 1.55204 82.3103 1.42596 82.3625C1.29988 82.4147 1.19208 82.5032 1.11626 82.6167C1.04045 82.7301 0.999993 82.8635 0.999993 83C0.9946 83.0901 1.00722 83.1805 1.0371 83.2657C1.06698 83.3509 1.11356 83.4293 1.17406 83.4963C1.23457 83.5633 1.3078 83.6176 1.38952 83.656C1.47124 83.6944 1.5598 83.7162 1.65002 83.72L1.69 83.69ZM12.95 1.69C13.0865 1.69 13.2198 1.64953 13.3333 1.57371C13.4468 1.4979 13.5352 1.39013 13.5875 1.26405C13.6397 1.13797 13.6534 0.999233 13.6268 0.865387C13.6001 0.73154 13.5344 0.608598 13.4379 0.5121C13.3414 0.415602 13.2184 0.349881 13.0846 0.323257C12.9507 0.296633 12.812 0.310293 12.686 0.362518C12.5599 0.414742 12.4521 0.503183 12.3763 0.616653C12.3005 0.730123 12.26 0.863531 12.26 1C12.2518 1.1814 12.3154 1.3587 12.4371 1.49348C12.5588 1.62827 12.7287 1.70966 12.91 1.72L12.95 1.69ZM12.95 13.41C13.0865 13.41 13.2198 13.3695 13.3333 13.2937C13.4468 13.2179 13.5352 13.1101 13.5875 12.9841C13.6397 12.858 13.6534 12.7192 13.6268 12.5854C13.6001 12.4515 13.5344 12.3286 13.4379 12.2321C13.3414 12.1356 13.2184 12.0699 13.0846 12.0433C12.9507 12.0166 12.812 12.0303 12.686 12.0825C12.5599 12.1347 12.4521 12.2232 12.3763 12.3367C12.3005 12.4501 12.26 12.5835 12.26 12.72C12.2518 12.9014 12.3154 13.0787 12.4371 13.2135C12.5588 13.3483 12.7287 13.4297 12.91 13.44L12.95 13.41ZM12.95 25.12C13.0865 25.12 13.2198 25.0795 13.3333 25.0037C13.4468 24.9279 13.5352 24.8201 13.5875 24.694C13.6397 24.568 13.6534 24.4292 13.6268 24.2954C13.6001 24.1615 13.5344 24.0386 13.4379 23.9421C13.3414 23.8456 13.2184 23.7799 13.0846 23.7533C12.9507 23.7266 12.812 23.7403 12.686 23.7925C12.5599 23.8448 12.4521 23.9332 12.3763 24.0467C12.3005 24.1601 12.26 24.2935 12.26 24.43C12.2518 24.6114 12.3154 24.7887 12.4371 24.9235C12.5588 25.0583 12.7287 25.1397 12.91 25.15L12.95 25.12ZM12.95 36.84C13.0865 36.84 13.2198 36.7995 13.3333 36.7237C13.4468 36.6479 13.5352 36.5401 13.5875 36.414C13.6397 36.288 13.6534 36.1492 13.6268 36.0154C13.6001 35.8815 13.5344 35.7586 13.4379 35.6621C13.3414 35.5656 13.2184 35.4999 13.0846 35.4733C12.9507 35.4466 12.812 35.4603 12.686 35.5125C12.5599 35.5648 12.4521 35.6532 12.3763 35.7667C12.3005 35.8801 12.26 36.0135 12.26 36.15C12.2518 36.3314 12.3154 36.5087 12.4371 36.6435C12.5588 36.7783 12.7287 36.8597 12.91 36.87L12.95 36.84ZM12.95 48.55C13.0865 48.55 13.2198 48.5095 13.3333 48.4337C13.4468 48.3579 13.5352 48.2501 13.5875 48.1241C13.6397 47.998 13.6534 47.8592 13.6268 47.7254C13.6001 47.5915 13.5344 47.4686 13.4379 47.3721C13.3414 47.2756 13.2184 47.2099 13.0846 47.1833C12.9507 47.1566 12.812 47.1703 12.686 47.2225C12.5599 47.2747 12.4521 47.3632 12.3763 47.4767C12.3005 47.5901 12.26 47.7235 12.26 47.86C12.2518 48.0414 12.3154 48.2187 12.4371 48.3535C12.5588 48.4883 12.7287 48.5697 12.91 48.58L12.95 48.55ZM12.95 60.26C13.0401 60.2613 13.1297 60.2447 13.2133 60.2111C13.297 60.1776 13.3731 60.1277 13.4373 60.0644C13.5015 60.0011 13.5525 59.9257 13.5873 59.8426C13.6221 59.7594 13.64 59.6701 13.64 59.58C13.64 59.397 13.5673 59.2215 13.4379 59.0921C13.3085 58.9627 13.133 58.89 12.95 58.89C12.767 58.89 12.5915 58.9627 12.4621 59.0921C12.3327 59.2215 12.26 59.397 12.26 59.58C12.256 59.6693 12.2696 59.7586 12.3001 59.8426C12.3306 59.9267 12.3774 60.0039 12.4377 60.0698C12.4981 60.1358 12.5709 60.1891 12.652 60.2269C12.733 60.2647 12.8206 60.2861 12.91 60.29L12.95 60.26ZM12.95 71.98C13.0865 71.98 13.2198 71.9395 13.3333 71.8637C13.4468 71.7879 13.5352 71.6801 13.5875 71.554C13.6397 71.428 13.6534 71.2892 13.6268 71.1554C13.6001 71.0215 13.5344 70.8986 13.4379 70.8021C13.3414 70.7056 13.2184 70.6399 13.0846 70.6133C12.9507 70.5866 12.812 70.6003 12.686 70.6525C12.5599 70.7048 12.4521 70.7932 12.3763 70.9066C12.3005 71.0201 12.26 71.1535 12.26 71.29C12.2545 71.4697 12.3193 71.6445 12.4407 71.7771C12.5621 71.9097 12.7305 71.9897 12.91 72L12.95 71.98ZM12.95 83.69C13.0869 83.69 13.2207 83.6493 13.3343 83.573C13.448 83.4967 13.5365 83.3884 13.5884 83.2617C13.6403 83.135 13.6534 82.9958 13.6259 82.8617C13.5985 82.7276 13.5318 82.6046 13.4343 82.5085C13.3368 82.4125 13.2129 82.3475 13.0784 82.3221C12.9439 82.2966 12.8048 82.3117 12.6789 82.3654C12.5531 82.4192 12.446 82.5092 12.3714 82.624C12.2968 82.7387 12.258 82.8731 12.26 83.01C12.256 83.0993 12.2696 83.1886 12.3001 83.2726C12.3306 83.3567 12.3774 83.4339 12.4377 83.4998C12.4981 83.5658 12.5709 83.6191 12.652 83.6569C12.733 83.6947 12.8206 83.7161 12.91 83.72L12.95 83.69ZM12.95 95.41C13.0865 95.41 13.2198 95.3695 13.3333 95.2937C13.4468 95.2179 13.5352 95.1101 13.5875 94.984C13.6397 94.858 13.6534 94.7192 13.6268 94.5854C13.6001 94.4515 13.5344 94.3286 13.4379 94.2321C13.3414 94.1356 13.2184 94.0699 13.0846 94.0432C12.9507 94.0166 12.812 94.0303 12.686 94.0825C12.5599 94.1347 12.4521 94.2232 12.3763 94.3367C12.3005 94.4501 12.26 94.5835 12.26 94.72C12.2518 94.9014 12.3154 95.0787 12.4371 95.2135C12.5588 95.3483 12.7287 95.4297 12.91 95.44L12.95 95.41ZM24.21 1.69C24.3465 1.69 24.4798 1.64953 24.5933 1.57371C24.7068 1.4979 24.7952 1.39013 24.8475 1.26405C24.8997 1.13797 24.9133 0.999233 24.8867 0.865387C24.8601 0.73154 24.7944 0.608598 24.6979 0.5121C24.6014 0.415602 24.4784 0.349881 24.3446 0.323257C24.2108 0.296633 24.072 0.310293 23.9459 0.362518C23.8198 0.414742 23.7121 0.503183 23.6363 0.616653C23.5605 0.730123 23.52 0.863531 23.52 1C23.5118 1.1814 23.5755 1.3587 23.6971 1.49348C23.8188 1.62827 23.9887 1.70966 24.17 1.72L24.21 1.69ZM24.21 13.41C24.3465 13.41 24.4798 13.3695 24.5933 13.2937C24.7068 13.2179 24.7952 13.1101 24.8475 12.9841C24.8997 12.858 24.9133 12.7192 24.8867 12.5854C24.8601 12.4515 24.7944 12.3286 24.6979 12.2321C24.6014 12.1356 24.4784 12.0699 24.3446 12.0433C24.2108 12.0166 24.072 12.0303 23.9459 12.0825C23.8198 12.1347 23.7121 12.2232 23.6363 12.3367C23.5605 12.4501 23.52 12.5835 23.52 12.72C23.5118 12.9014 23.5755 13.0787 23.6971 13.2135C23.8188 13.3483 23.9887 13.4297 24.17 13.44L24.21 13.41ZM24.21 25.12C24.3465 25.12 24.4798 25.0795 24.5933 25.0037C24.7068 24.9279 24.7952 24.8201 24.8475 24.694C24.8997 24.568 24.9133 24.4292 24.8867 24.2954C24.8601 24.1615 24.7944 24.0386 24.6979 23.9421C24.6014 23.8456 24.4784 23.7799 24.3446 23.7533C24.2108 23.7266 24.072 23.7403 23.9459 23.7925C23.8198 23.8448 23.7121 23.9332 23.6363 24.0467C23.5605 24.1601 23.52 24.2935 23.52 24.43C23.5118 24.6114 23.5755 24.7887 23.6971 24.9235C23.8188 25.0583 23.9887 25.1397 24.17 25.15L24.21 25.12ZM24.21 36.84C24.3465 36.84 24.4798 36.7995 24.5933 36.7237C24.7068 36.6479 24.7952 36.5401 24.8475 36.414C24.8997 36.288 24.9133 36.1492 24.8867 36.0154C24.8601 35.8815 24.7944 35.7586 24.6979 35.6621C24.6014 35.5656 24.4784 35.4999 24.3446 35.4733C24.2108 35.4466 24.072 35.4603 23.9459 35.5125C23.8198 35.5648 23.7121 35.6532 23.6363 35.7667C23.5605 35.8801 23.52 36.0135 23.52 36.15C23.5118 36.3314 23.5755 36.5087 23.6971 36.6435C23.8188 36.7783 23.9887 36.8597 24.17 36.87L24.21 36.84ZM24.21 48.55C24.3465 48.55 24.4798 48.5095 24.5933 48.4337C24.7068 48.3579 24.7952 48.2501 24.8475 48.1241C24.8997 47.998 24.9133 47.8592 24.8867 47.7254C24.8601 47.5915 24.7944 47.4686 24.6979 47.3721C24.6014 47.2756 24.4784 47.2099 24.3446 47.1833C24.2108 47.1566 24.072 47.1703 23.9459 47.2225C23.8198 47.2747 23.7121 47.3632 23.6363 47.4767C23.5605 47.5901 23.52 47.7235 23.52 47.86C23.5118 48.0414 23.5755 48.2187 23.6971 48.3535C23.8188 48.4883 23.9887 48.5697 24.17 48.58L24.21 48.55ZM24.21 60.26C24.3002 60.2613 24.3896 60.2447 24.4733 60.2111C24.5569 60.1776 24.6331 60.1277 24.6973 60.0644C24.7615 60.0011 24.8125 59.9257 24.8473 59.8426C24.8821 59.7594 24.9 59.6701 24.9 59.58C24.9 59.397 24.8273 59.2215 24.6979 59.0921C24.5685 58.9627 24.393 58.89 24.21 58.89C24.027 58.89 23.8515 58.9627 23.7221 59.0921C23.5927 59.2215 23.52 59.397 23.52 59.58C23.516 59.6693 23.5296 59.7586 23.5601 59.8426C23.5906 59.9267 23.6374 60.0039 23.6977 60.0698C23.7581 60.1358 23.8309 60.1891 23.9119 60.2269C23.993 60.2647 24.0806 60.2861 24.17 60.29L24.21 60.26ZM24.21 71.98C24.3465 71.98 24.4798 71.9395 24.5933 71.8637C24.7068 71.7879 24.7952 71.6801 24.8475 71.554C24.8997 71.428 24.9133 71.2892 24.8867 71.1554C24.8601 71.0215 24.7944 70.8986 24.6979 70.8021C24.6014 70.7056 24.4784 70.6399 24.3446 70.6133C24.2108 70.5866 24.072 70.6003 23.9459 70.6525C23.8198 70.7048 23.7121 70.7932 23.6363 70.9066C23.5605 71.0201 23.52 71.1535 23.52 71.29C23.5145 71.4697 23.5793 71.6445 23.7007 71.7771C23.8221 71.9097 23.9905 71.9897 24.17 72L24.21 71.98ZM24.21 83.69C24.3469 83.69 24.4807 83.6493 24.5944 83.573C24.708 83.4967 24.7965 83.3884 24.8484 83.2617C24.9003 83.135 24.9134 82.9958 24.8859 82.8617C24.8585 82.7276 24.7918 82.6046 24.6943 82.5085C24.5968 82.4125 24.4729 82.3475 24.3384 82.3221C24.2039 82.2966 24.0648 82.3117 23.939 82.3654C23.8131 82.4192 23.706 82.5092 23.6314 82.624C23.5568 82.7387 23.518 82.8731 23.52 83.01C23.516 83.0993 23.5296 83.1886 23.5601 83.2726C23.5906 83.3567 23.6374 83.4339 23.6977 83.4998C23.7581 83.5658 23.8309 83.6191 23.9119 83.6569C23.993 83.6947 24.0806 83.7161 24.17 83.72L24.21 83.69ZM24.21 95.41C24.3465 95.41 24.4798 95.3695 24.5933 95.2937C24.7068 95.2179 24.7952 95.1101 24.8475 94.984C24.8997 94.858 24.9133 94.7192 24.8867 94.5854C24.8601 94.4515 24.7944 94.3286 24.6979 94.2321C24.6014 94.1356 24.4784 94.0699 24.3446 94.0432C24.2108 94.0166 24.072 94.0303 23.9459 94.0825C23.8198 94.1347 23.7121 94.2232 23.6363 94.3367C23.5605 94.4501 23.52 94.5835 23.52 94.72C23.5118 94.9014 23.5755 95.0787 23.6971 95.2135C23.8188 95.3483 23.9887 95.4297 24.17 95.44L24.21 95.41ZM24.21 107.12C24.3465 107.12 24.4798 107.08 24.5933 107.004C24.7068 106.928 24.7952 106.82 24.8475 106.694C24.8997 106.568 24.9133 106.429 24.8867 106.295C24.8601 106.162 24.7944 106.039 24.6979 105.942C24.6014 105.846 24.4784 105.78 24.3446 105.753C24.2108 105.727 24.072 105.74 23.9459 105.793C23.8198 105.845 23.7121 105.933 23.6363 106.047C23.5605 106.16 23.52 106.294 23.52 106.43C23.5118 106.611 23.5755 106.789 23.6971 106.923C23.8188 107.058 23.9887 107.14 24.17 107.15L24.21 107.12Z" fill="white"/>
</svg>
