<svg xmlns="http://www.w3.org/2000/svg" xmlns:xlink="http://www.w3.org/1999/xlink" viewBox="0 0 1367 768"><defs><style>.cls-1{fill:none;}.cls-2{isolation:isolate;}.cls-3{clip-path:url(#clip-path);}.cls-4{fill:url(#linear-gradient);}.cls-5{fill:#0a6aa6;}.cls-6{fill:#532a95;mix-blend-mode:multiply;}.cls-6,.cls-8{opacity:0.2;}.cls-10,.cls-7{fill:#fff;}.cls-8{fill:#ca75fa;}.cls-9{opacity:0.4;}.cls-10{opacity:0.8;}</style><clipPath id="clip-path"><rect class="cls-1" width="1367" height="768"/></clipPath><linearGradient id="linear-gradient" x1="-212.86" y1="391.26" x2="1154.64" y2="391.26" gradientTransform="matrix(1, 0, 0, -1, 212.86, 782.52)" gradientUnits="userSpaceOnUse"><stop offset="0" stop-color="#6a16fa"/><stop offset="1" stop-color="#a48ef2"/></linearGradient></defs><title>background</title><g class="cls-2"><g id="Capa_1" data-name="Capa 1"><g class="cls-3"><rect class="cls-4" y="-64.58" width="1367.5" height="911.67" transform="translate(1367.5 782.52) rotate(-180)"/><rect class="cls-5" y="-64.58" width="1367.5" height="911.67"/><path class="cls-6" d="M1366.71,319.85a264.2,264.2,0,0,0-85.08-50.23c-38-13.48-78.48-16.41-118.47-16.44-74.56-.07-154.22,9.5-223.39-24.88-25.84-12.85-48.74-31.43-65.7-54.86-17.34-23.95-28-52-32.76-81.14C833,41.21,848.23-14.54,837.53-64.58h530V320.58ZM0,270.45V847.09H579.54c-4.22-6.26-8.21-12.69-11.91-19.34-22.8-41-33.4-87.15-51.92-130a315.6,315.6,0,0,0-59.57-91.19c-24.68-26.2-53.76-47.83-84.85-65.82-36.75-21.27-76.32-36.87-115-54.17-41.69-18.65-82.17-39.39-119-66.67A539.23,539.23,0,0,1,0,270.45Z"/><path class="cls-7" d="M1287.77,751.88a1.45,1.45,0,1,1-1.44,1.45A1.45,1.45,0,0,1,1287.77,751.88Zm-1.44-23.09a1.45,1.45,0,1,0,1.44-1.44A1.44,1.44,0,0,0,1286.33,728.79Zm0-24.54a1.45,1.45,0,1,0,1.44-1.44A1.45,1.45,0,0,0,1286.33,704.25Zm0-24.53a1.45,1.45,0,1,0,1.44-1.45A1.45,1.45,0,0,0,1286.33,679.72Zm0-24.54a1.45,1.45,0,1,0,1.44-1.44A1.44,1.44,0,0,0,1286.33,655.18Zm0-24.54a1.45,1.45,0,1,0,1.44-1.44A1.45,1.45,0,0,0,1286.33,630.64Zm0-24.53a1.45,1.45,0,1,0,1.44-1.45A1.45,1.45,0,0,0,1286.33,606.11Zm0-24.54a1.45,1.45,0,1,0,1.44-1.44A1.44,1.44,0,0,0,1286.33,581.57Zm23.58,171.76a1.44,1.44,0,1,0,1.44-1.45A1.44,1.44,0,0,0,1309.91,753.33Zm0-24.54a1.44,1.44,0,1,0,1.44-1.44A1.43,1.43,0,0,0,1309.91,728.79Zm0-24.54a1.44,1.44,0,1,0,1.44-1.44A1.44,1.44,0,0,0,1309.91,704.25Zm0-24.53a1.44,1.44,0,1,0,1.44-1.45A1.44,1.44,0,0,0,1309.91,679.72Zm0-24.54a1.44,1.44,0,1,0,1.44-1.44A1.43,1.43,0,0,0,1309.91,655.18Zm0-24.54a1.44,1.44,0,1,0,1.44-1.44A1.44,1.44,0,0,0,1309.91,630.64Zm0-24.53a1.44,1.44,0,1,0,1.44-1.45A1.44,1.44,0,0,0,1309.91,606.11Zm0-24.54a1.44,1.44,0,1,0,1.44-1.44A1.43,1.43,0,0,0,1309.91,581.57Zm0-24.54a1.44,1.44,0,1,0,1.44-1.44A1.44,1.44,0,0,0,1309.91,557Zm23.58,196.3a1.44,1.44,0,1,0,1.44-1.45A1.44,1.44,0,0,0,1333.49,753.33Zm0-24.54a1.44,1.44,0,1,0,1.44-1.44A1.43,1.43,0,0,0,1333.49,728.79Zm0-24.54a1.44,1.44,0,1,0,1.44-1.44A1.44,1.44,0,0,0,1333.49,704.25Zm0-24.53a1.44,1.44,0,1,0,1.44-1.45A1.44,1.44,0,0,0,1333.49,679.72Zm0-24.54a1.44,1.44,0,1,0,1.44-1.44A1.43,1.43,0,0,0,1333.49,655.18Zm0-24.54a1.44,1.44,0,1,0,1.44-1.44A1.44,1.44,0,0,0,1333.49,630.64Zm0-24.53a1.44,1.44,0,1,0,1.44-1.45A1.44,1.44,0,0,0,1333.49,606.11Zm0-24.54a1.44,1.44,0,1,0,1.44-1.44A1.43,1.43,0,0,0,1333.49,581.57Zm0-24.54a1.44,1.44,0,1,0,1.44-1.44A1.44,1.44,0,0,0,1333.49,557Zm0-24.53a1.44,1.44,0,1,0,1.44-1.45A1.44,1.44,0,0,0,1333.49,532.5Z"/><path class="cls-7" d="M34,66.34a1.44,1.44,0,1,0-1.44,1.45A1.44,1.44,0,0,0,34,66.34Zm23.1,1.45a1.45,1.45,0,1,1,1.44-1.45A1.45,1.45,0,0,1,57.11,67.79Zm24.53,0a1.45,1.45,0,1,1,1.45-1.45A1.45,1.45,0,0,1,81.64,67.79Zm24.54,0a1.45,1.45,0,1,1,1.45-1.45A1.44,1.44,0,0,1,106.18,67.79Zm24.54,0a1.45,1.45,0,1,1,1.44-1.45A1.44,1.44,0,0,1,130.72,67.79Zm24.54,0a1.45,1.45,0,1,1,1.44-1.45A1.45,1.45,0,0,1,155.26,67.79Zm24.53,0a1.45,1.45,0,1,1,1.45-1.45A1.45,1.45,0,0,1,179.79,67.79Zm24.54,0a1.45,1.45,0,1,1,1.44-1.45A1.44,1.44,0,0,1,204.33,67.79ZM32.57,44.21A1.45,1.45,0,1,1,34,42.77,1.44,1.44,0,0,1,32.57,44.21Zm24.54,0a1.45,1.45,0,1,1,1.44-1.44A1.45,1.45,0,0,1,57.11,44.21Zm24.53,0a1.45,1.45,0,1,1,1.45-1.44A1.45,1.45,0,0,1,81.64,44.21Zm24.54,0a1.45,1.45,0,1,1,1.45-1.44A1.44,1.44,0,0,1,106.18,44.21Zm24.54,0a1.45,1.45,0,1,1,1.44-1.44A1.44,1.44,0,0,1,130.72,44.21Zm24.54,0a1.45,1.45,0,1,1,1.44-1.44A1.45,1.45,0,0,1,155.26,44.21Zm24.53,0a1.45,1.45,0,1,1,1.45-1.44A1.45,1.45,0,0,1,179.79,44.21Zm24.54,0a1.45,1.45,0,1,1,1.44-1.44A1.44,1.44,0,0,1,204.33,44.21Zm24.54,0a1.45,1.45,0,1,1,1.44-1.44A1.45,1.45,0,0,1,228.87,44.21ZM32.57,20.63A1.45,1.45,0,1,1,34,19.19,1.44,1.44,0,0,1,32.57,20.63Zm24.54,0a1.45,1.45,0,1,1,1.44-1.44A1.45,1.45,0,0,1,57.11,20.63Zm24.53,0a1.45,1.45,0,1,1,1.45-1.44A1.45,1.45,0,0,1,81.64,20.63Zm24.54,0a1.45,1.45,0,1,1,1.45-1.44A1.44,1.44,0,0,1,106.18,20.63Zm24.54,0a1.45,1.45,0,1,1,1.44-1.44A1.44,1.44,0,0,1,130.72,20.63Zm24.54,0a1.45,1.45,0,1,1,1.44-1.44A1.45,1.45,0,0,1,155.26,20.63Zm24.53,0a1.45,1.45,0,1,1,1.45-1.44A1.45,1.45,0,0,1,179.79,20.63Zm24.54,0a1.45,1.45,0,1,1,1.44-1.44A1.44,1.44,0,0,1,204.33,20.63Zm24.54,0a1.45,1.45,0,1,1,1.44-1.44A1.45,1.45,0,0,1,228.87,20.63Zm24.53,0a1.45,1.45,0,1,1,1.45-1.44A1.45,1.45,0,0,1,253.4,20.63Z"/><path class="cls-8" d="M267,479.84c4.32,0,4.33,6.72,0,6.72S262.63,479.84,267,479.84Zm61.2-252.63c4.36,0,4.35-6.76,0-6.76S323.79,227.21,328.15,227.21ZM601.44-26.4c2.83,0,2.82-4.38,0-4.38S598.62-26.4,601.44-26.4ZM996.35,33.86c3,0,3-4.66,0-4.66S993.35,33.86,996.35,33.86Zm229.87-47.29c2.83,0,2.82-4.38,0-4.38S1223.4-13.43,1226.22-13.43Zm83.7,263.51c3.64,0,3.64-5.65,0-5.65S1306.28,250.08,1309.92,250.08ZM1115.41,174c2.83,0,2.82-4.38,0-4.38S1112.59,174,1115.41,174ZM1000.28,359.4l.13.07a3.58,3.58,0,0,0,1.19,1.54,2.66,2.66,0,1,0,2.59-4.45,4.61,4.61,0,0,0-2.2-.08h0C1000,355.59,998.35,358.3,1000.28,359.4Zm132.81,97.31c4.08,0,4.07-6.32,0-6.32S1129,456.71,1133.09,456.71Zm158,183.84c4,0,4-6.21,0-6.21S1287.06,640.55,1291.06,640.55Zm-196,109.16a7.6,7.6,0,0,0,4.29,1.86,2.88,2.88,0,1,0-.23-4.18,2.68,2.68,0,0,1-1.2-.55,2.08,2.08,0,0,0-2.86,0A2,2,0,0,0,1095.1,749.71ZM333.85,797.93c.79,0,1.57.07,2.36.08,3.36.06,3.35-5.27,0-5.21-.79,0-1.57.05-2.36.08A2.53,2.53,0,0,0,333.85,797.93ZM136.1,661.87a5.83,5.83,0,0,0,2.07.37,3.58,3.58,0,0,0,0-7.15,6.05,6.05,0,0,0-2.07.36A3.36,3.36,0,0,0,136.1,661.87ZM215.36,28a3,3,0,1,0,5.93,0l-.11-1.18a2.86,2.86,0,0,0-5.71,0ZM103.63,133.16c3.29.37,5.49-3.84,3.06-6.49s-6.72-.19-6.49,3A2.77,2.77,0,0,0,103.63,133.16Zm4.09,249.58c4.51,0,4.5-7,0-7S103.22,382.74,107.72,382.74Z"/><g class="cls-9"><path class="cls-10" d="M370.48,175a8.55,8.55,0,0,1-6.62,6.61v-1.7a6.89,6.89,0,0,0,4.91-4.91Zm-10.07,4.91A6.89,6.89,0,0,1,355.5,175h-1.71a8.54,8.54,0,0,0,6.62,6.61Zm3.45-13.27a6.86,6.86,0,0,1,4.91,4.91h1.71a8.55,8.55,0,0,0-6.62-6.62Zm-8.36,4.91a6.87,6.87,0,0,1,4.91-4.91v-1.71a8.54,8.54,0,0,0-6.62,6.62Z"/><path class="cls-10" d="M1068,624.79a8.55,8.55,0,0,1-6.62,6.62V629.7a6.89,6.89,0,0,0,4.91-4.91Zm-10.07,4.91a6.89,6.89,0,0,1-4.91-4.91h-1.71a8.58,8.58,0,0,0,6.62,6.62Zm3.45-13.27a6.89,6.89,0,0,1,4.91,4.91H1068a8.55,8.55,0,0,0-6.62-6.62Zm-8.36,4.91a6.89,6.89,0,0,1,4.91-4.91v-1.71a8.57,8.57,0,0,0-6.62,6.62Z"/><path class="cls-10" d="M282.76,593.2a8.53,8.53,0,0,1-6.62,6.62v-1.71a6.86,6.86,0,0,0,4.91-4.91Zm-10.07,4.91a6.86,6.86,0,0,1-4.9-4.91h-1.71a8.53,8.53,0,0,0,6.61,6.62Zm3.45-13.27a6.87,6.87,0,0,1,4.91,4.91h1.71a8.53,8.53,0,0,0-6.62-6.61Zm-8.35,4.91a6.86,6.86,0,0,1,4.9-4.91v-1.7a8.53,8.53,0,0,0-6.61,6.61Z"/><path class="cls-10" d="M959.76,214.67a8.55,8.55,0,0,1-6.62,6.61v-1.71a6.86,6.86,0,0,0,4.91-4.9Zm-10.07,4.9a6.86,6.86,0,0,1-4.91-4.9h-1.71a8.54,8.54,0,0,0,6.62,6.61Zm3.45-13.26a6.86,6.86,0,0,1,4.91,4.91h1.71a8.55,8.55,0,0,0-6.62-6.62Zm-8.36,4.91a6.86,6.86,0,0,1,4.91-4.91V204.6a8.54,8.54,0,0,0-6.62,6.62Z"/></g></g></g></g></svg>